<svg width="200" height="200" viewBox="0 0 200 200" fill="none" xmlns="http://www.w3.org/2000/svg">
<mask id="mask0_3604_39966" style="mask-type:alpha" maskUnits="userSpaceOnUse" x="0" y="0" width="200" height="200">
<rect width="200" height="200" fill="#D9D9D9"/>
</mask>
<g mask="url(#mask0_3604_39966)">
<path d="M126.979 132.626C127.366 131.765 127.622 130.853 127.741 129.921C130.361 129.289 132.831 128.12 134.993 126.481C137.793 124.357 139.971 121.52 141.299 118.266C142.627 115.012 143.057 111.461 142.543 107.984C142.261 106.076 141.701 104.228 140.886 102.497C147.205 101.594 153.107 98.6705 157.675 94.1051C163.243 88.5409 166.373 80.9937 166.379 73.1224C166.4 65.3703 163.386 57.9177 157.984 52.3586C152.581 46.7994 145.217 43.575 137.467 43.3749C129.718 43.1748 122.198 46.015 116.515 51.288C112.066 55.4165 109.02 60.7797 107.725 66.6295C104.784 64.5483 101.476 63.0117 97.9587 62.1091C92.816 60.7893 87.4133 60.8731 82.3139 62.3516C77.2146 63.8301 72.6051 66.6493 68.966 70.5153C66.0221 73.6427 63.8004 77.3625 62.4407 81.4114C61.0545 81.0366 59.6152 80.8662 58.1683 80.9107C55.6488 80.9882 53.1919 81.7149 51.0356 83.0203C48.8792 84.3257 47.0964 86.1658 45.8597 88.3623C44.623 90.5587 43.9742 93.0373 43.9763 95.5581L43.9763 95.5586C43.9765 95.8099 43.9832 96.061 43.9961 96.3117C42.1722 97.1253 40.4791 98.2144 38.9776 99.5444C36.9201 101.367 35.2685 103.601 34.1295 106.103C32.9905 108.604 32.3896 111.317 32.3657 114.066C32.3419 116.814 32.8956 119.537 33.991 122.058C35.0863 124.579 36.699 126.842 38.7245 128.7C40.75 130.558 43.1431 131.969 45.749 132.844C48.3548 133.718 51.1152 134.035 53.8514 133.775C55.6097 133.607 57.3329 133.204 58.9752 132.579C61.6776 138.211 66.1097 142.867 71.6597 145.84C77.5254 148.983 84.2636 150.045 90.7812 148.886C93.1807 151.925 96.4364 154.196 100.147 155.392C104.445 156.777 109.089 156.636 113.294 154.993C117.5 153.349 121.009 150.304 123.228 146.372C125.224 142.835 126.066 138.775 125.658 134.757C126.189 134.11 126.634 133.393 126.979 132.626Z" stroke="#677580" stroke-width="5.27" stroke-miterlimit="10"/>
<path d="M80.8316 120.807C78.1873 120.807 75.8735 120.248 73.8903 119.129C71.9325 117.985 70.4196 116.37 69.3517 114.285C68.3093 112.2 67.788 109.772 67.788 107.001C67.788 104.229 68.3093 101.814 69.3517 99.7544C70.4196 97.6695 71.9325 96.0676 73.8903 94.9489C75.8735 93.8047 78.1873 93.2326 80.8316 93.2326C82.6368 93.2326 84.3403 93.5123 85.9422 94.0717C87.544 94.6311 88.8916 95.4193 89.9849 96.4363L88.3449 100.021C87.1245 99.0552 85.9168 98.356 84.7217 97.9237C83.5267 97.4661 82.2554 97.2372 80.9078 97.2372C78.3144 97.2372 76.3057 98.0763 74.8819 99.7544C73.4834 101.433 72.7842 103.848 72.7842 107.001C72.7842 110.179 73.4834 112.607 74.8819 114.285C76.3057 115.963 78.3144 116.803 80.9078 116.803C82.2554 116.803 83.5267 116.586 84.7217 116.154C85.9168 115.696 87.1245 114.985 88.3449 114.018L89.9849 117.603C88.8916 118.62 87.544 119.409 85.9422 119.968C84.3403 120.527 82.6368 120.807 80.8316 120.807ZM105.967 120.807C103.348 120.807 101.072 120.248 99.1398 119.129C97.2328 118.01 95.7581 116.408 94.7156 114.323C93.6732 112.239 93.1519 109.798 93.1519 107.001C93.1519 104.204 93.6605 101.776 94.6775 99.7163C95.72 97.6313 97.2074 96.0295 99.1398 94.9107C101.072 93.792 103.348 93.2326 105.967 93.2326C108.586 93.2326 110.848 93.792 112.755 94.9107C114.688 96.0295 116.162 97.6313 117.18 99.7163C118.222 101.776 118.743 104.204 118.743 107.001C118.743 109.798 118.222 112.239 117.18 114.323C116.137 116.408 114.65 118.01 112.717 119.129C110.81 120.248 108.56 120.807 105.967 120.807ZM105.967 116.879C108.433 116.879 110.353 116.027 111.726 114.323C113.124 112.62 113.823 110.179 113.823 107.001C113.823 103.823 113.124 101.394 111.726 99.7163C110.353 98.0127 108.433 97.1609 105.967 97.1609C103.475 97.1609 101.53 98.0127 100.131 99.7163C98.7584 101.394 98.0719 103.823 98.0719 107.001C98.0719 110.179 98.7584 112.62 100.131 114.323C101.53 116.027 103.475 116.879 105.967 116.879Z" fill="#677580"/>
</g>
</svg>
