<svg width="200" height="200" viewBox="0 0 200 200" fill="none" xmlns="http://www.w3.org/2000/svg">
<mask id="mask0_3604_39965" style="mask-type:alpha" maskUnits="userSpaceOnUse" x="0" y="0" width="200" height="200">
<rect width="200" height="200" fill="#D9D9D9"/>
</mask>
<g mask="url(#mask0_3604_39965)">
<path d="M63.254 127.065C51.3863 128.204 38.915 127.39 37.1431 113.938C35.6016 102.174 46.7619 92.4551 58.6296 92.4551C58.6232 88.6421 59.6333 84.8964 61.5557 81.6036C63.4782 78.3108 66.2437 75.5899 69.5673 73.7211C72.8909 71.8524 76.6525 70.9033 80.4648 70.9716C84.2772 71.04 88.0024 72.1233 91.2569 74.1099C94.292 67.8694 99.3536 62.8424 105.615 59.8501C111.876 56.8579 118.967 56.0771 125.729 57.6355C132.492 59.1938 138.526 62.9992 142.846 68.4299C147.166 73.8607 149.517 80.5958 149.515 87.5353C149.515 87.9507 149.469 88.3531 149.453 88.762C153.654 90.2324 157.294 92.9718 159.87 96.6013C162.446 100.231 163.831 104.571 163.833 109.022C163.833 120.886 154.214 126.676 142.346 126.676" stroke="#677580" stroke-width="4.27" stroke-miterlimit="10"/>
<path d="M76.7177 55.7323C81.3382 55.7323 85.0838 51.9866 85.0838 47.3661C85.0838 42.7456 81.3382 39 76.7177 39C72.0972 39 68.3516 42.7456 68.3516 47.3661C68.3516 51.9866 72.0972 55.7323 76.7177 55.7323Z" stroke="#677580" stroke-width="4.27" stroke-miterlimit="10"/>
<path d="M56.786 70.4915C60.4799 70.4915 63.4744 67.497 63.4744 63.8031C63.4744 60.1092 60.4799 57.1147 56.786 57.1147C53.0921 57.1147 50.0977 60.1092 50.0977 63.8031C50.0977 67.497 53.0921 70.4915 56.786 70.4915Z" stroke="#677580" stroke-width="4.27" stroke-miterlimit="10"/>
<path d="M87.6927 86.3391H91.2267V106.93H88.3936L77.3534 92.5602V106.93H73.8486V86.3391H76.6525L87.6927 100.68V86.3391ZM104.839 107.193C102.834 107.193 101.091 106.764 99.6111 105.908C98.1508 105.051 97.0214 103.824 96.2231 102.228C95.4248 100.631 95.0256 98.7618 95.0256 96.6199C95.0256 94.4781 95.4151 92.6186 96.1939 91.0414C96.9922 89.4448 98.1313 88.2181 99.6111 87.3613C101.091 86.5046 102.834 86.0762 104.839 86.0762C106.845 86.0762 108.578 86.5046 110.038 87.3613C111.518 88.2181 112.647 89.4448 113.426 91.0414C114.224 92.6186 114.623 94.4781 114.623 96.6199C114.623 98.7618 114.224 100.631 113.426 102.228C112.628 103.824 111.489 105.051 110.009 105.908C108.548 106.764 106.825 107.193 104.839 107.193ZM104.839 104.184C106.728 104.184 108.198 103.532 109.249 102.228C110.32 100.923 110.856 99.0538 110.856 96.6199C110.856 94.186 110.32 92.3265 109.249 91.0414C108.198 89.7368 106.728 89.0846 104.839 89.0846C102.931 89.0846 101.441 89.7368 100.37 91.0414C99.319 92.3265 98.7933 94.186 98.7933 96.6199C98.7933 99.0538 99.319 100.923 100.37 102.228C101.441 103.532 102.931 104.184 104.839 104.184ZM124.148 104.845V106.93H117.052V104.988L120.336 101.575C120.964 100.919 121.278 100.314 121.278 99.7619C121.278 99.0956 120.883 98.7624 120.093 98.7624C119.712 98.7624 119.298 98.8433 118.851 99.0051C118.413 99.1575 117.97 99.3764 117.523 99.662L116.709 97.8057C117.109 97.4821 117.628 97.225 118.265 97.0347C118.913 96.8347 119.57 96.7348 120.236 96.7348C120.959 96.7348 121.592 96.8538 122.135 97.0918C122.687 97.3202 123.111 97.6486 123.406 98.077C123.701 98.5054 123.848 99.0051 123.848 99.5763C123.848 100.157 123.729 100.69 123.492 101.176C123.263 101.651 122.868 102.185 122.306 102.775L120.279 104.845H124.148Z" fill="#677580"/>
<path d="M78.3276 118.925L78.0031 164.819C78.0063 164.959 77.9639 165.097 77.8823 165.211C77.8006 165.325 77.6842 165.41 77.5504 165.452C77.4166 165.495 77.2726 165.493 77.14 165.446C77.0075 165.4 76.8936 165.312 76.8154 165.195L71.4219 157.764L77.9674 166.786L84.1885 157.748" stroke="#677580" stroke-width="4.27" stroke-miterlimit="10"/>
<path d="M99.817 115.813L99.4373 148.405C99.4353 148.565 99.3827 148.721 99.2868 148.85C99.191 148.979 99.0569 149.074 98.9036 149.123C98.7503 149.171 98.5857 149.17 98.4333 149.119C98.2809 149.068 98.1484 148.97 98.0548 148.839L91.7852 140.197L99.4016 150.696L106.642 140.178" stroke="#677580" stroke-width="4.27" stroke-miterlimit="10"/>
<path d="M120.063 126.285L119.738 162.606C119.742 162.747 119.701 162.886 119.619 163.001C119.537 163.116 119.42 163.202 119.285 163.244C119.15 163.287 119.005 163.284 118.872 163.237C118.739 163.19 118.625 163.1 118.547 162.982L113.16 155.557L119.706 164.576L125.927 155.541" stroke="#677580" stroke-width="4.27" stroke-miterlimit="10"/>
</g>
</svg>
