<svg width="200" height="200" viewBox="0 0 200 200" fill="none" xmlns="http://www.w3.org/2000/svg">
<mask id="mask0_3604_39977" style="mask-type:alpha" maskUnits="userSpaceOnUse" x="0" y="0" width="200" height="200">
<rect width="200" height="200" fill="#D9D9D9"/>
</mask>
<g mask="url(#mask0_3604_39977)">
<path d="M163.77 85.3651C163.789 78.3013 161.043 71.5104 156.12 66.4448C151.197 61.3792 144.487 58.4411 137.426 58.2588C130.364 58.0765 123.512 60.6645 118.334 65.4693C113.156 70.2741 110.063 76.9142 109.718 83.9696C106.294 80.5504 102.016 78.1121 97.33 76.9088C92.6436 75.7054 87.7201 75.7812 83.0729 77.1282C78.4257 78.4752 74.2249 81.0441 70.9084 84.5671C67.5919 88.0901 65.281 92.4382 64.2167 97.1581C62.1982 96.0996 59.9201 95.6374 57.6486 95.8256C55.3771 96.0138 53.2062 96.8446 51.3894 98.221C49.5726 99.5974 48.1851 101.462 47.3891 103.598C46.593 105.734 46.4212 108.052 46.8939 110.282C44.6217 110.997 42.5252 112.181 40.7404 113.759C38.9556 115.336 37.5224 117.271 36.5335 119.438C35.5447 121.605 35.0225 123.956 35.0007 126.338C34.9789 128.72 35.4581 131.079 36.4071 133.264C37.3561 135.449 38.7537 137.41 40.5094 139.02C42.2651 140.629 44.3395 141.852 46.5982 142.609C48.8569 143.365 51.2493 143.638 53.6204 143.41C55.9914 143.183 58.2881 142.459 60.3615 141.286C62.6283 147.494 67.1013 152.65 72.9271 155.77C78.7528 158.891 85.5235 159.757 91.9471 158.204C94.0708 161.484 97.2623 163.931 100.982 165.131C104.702 166.33 108.721 166.208 112.361 164.785C116.001 163.362 119.038 160.727 120.959 157.323C122.88 153.919 123.567 149.957 122.903 146.106C123.626 145.463 124.205 144.675 124.602 143.793C124.999 142.911 125.205 141.955 125.207 140.988C125.199 140.646 125.164 140.305 125.103 139.969C128.126 139.621 131 138.468 133.424 136.629C135.849 134.791 137.734 132.335 138.885 129.518C140.035 126.701 140.407 123.627 139.963 120.617C139.518 117.607 138.273 114.771 136.358 112.407C136.474 112.407 136.591 112.427 136.708 112.427C143.885 112.427 150.769 109.576 155.844 104.501C160.919 99.4256 163.77 92.5423 163.77 85.3651V85.3651Z" stroke="#677580" stroke-width="4.27" stroke-miterlimit="10"/>
<path d="M67.4513 69.2071C71.2689 69.2071 74.3636 66.1124 74.3636 62.2949C74.3636 58.4773 71.2689 55.3826 67.4513 55.3826C63.6338 55.3826 60.5391 58.4773 60.5391 62.2949C60.5391 66.1124 63.6338 69.2071 67.4513 69.2071Z" stroke="#677580" stroke-width="4.27" stroke-miterlimit="10"/>
<path d="M99.3982 53.1597C104.689 53.1597 108.978 48.8706 108.978 43.5798C108.978 38.289 104.689 34 99.3982 34C94.1074 34 89.8184 38.289 89.8184 43.5798C89.8184 48.8706 94.1074 53.1597 99.3982 53.1597Z" stroke="#677580" stroke-width="4.27" stroke-miterlimit="10"/>
<path d="M142.652 161.274C147.943 161.274 152.232 156.985 152.232 151.694C152.232 146.403 147.943 142.114 142.652 142.114C137.361 142.114 133.072 146.403 133.072 151.694C133.072 156.985 137.361 161.274 142.652 161.274Z" stroke="#677580" stroke-width="4.27" stroke-miterlimit="10"/>
<path d="M84.202 132.336C81.6406 132.336 79.4149 131.789 77.525 130.694C75.6599 129.6 74.2176 128.034 73.198 125.994C72.1784 123.955 71.6686 121.568 71.6686 118.832C71.6686 116.097 72.166 113.722 73.1607 111.708C74.1803 109.669 75.635 108.102 77.525 107.008C79.4149 105.914 81.6406 105.366 84.202 105.366C86.7634 105.366 88.9766 105.914 90.8417 107.008C92.7317 108.102 94.174 109.669 95.1687 111.708C96.1883 113.722 96.6981 116.097 96.6981 118.832C96.6981 121.568 96.1883 123.955 95.1687 125.994C94.1492 128.034 92.6944 129.6 90.8044 130.694C88.9393 131.789 86.7385 132.336 84.202 132.336ZM84.202 128.494C86.6142 128.494 88.4917 127.661 89.8346 125.994C91.2023 124.328 91.8862 121.941 91.8862 118.832C91.8862 115.724 91.2023 113.349 89.8346 111.708C88.4917 110.042 86.6142 109.209 84.202 109.209C81.765 109.209 79.8626 110.042 78.4948 111.708C77.152 113.349 76.4805 115.724 76.4805 118.832C76.4805 121.941 77.152 124.328 78.4948 125.994C79.8626 127.661 81.765 128.494 84.202 128.494ZM108.683 123.868C109.578 124.142 110.275 124.602 110.772 125.248C111.294 125.895 111.555 126.703 111.555 127.673C111.555 128.991 111.033 130.073 109.989 130.918C108.944 131.739 107.465 132.149 105.55 132.149C104.53 132.149 103.486 132 102.416 131.702C101.372 131.403 100.502 131.018 99.8052 130.545L100.589 127.636C102.081 128.581 103.635 129.053 105.251 129.053C106.917 129.053 107.751 128.481 107.751 127.337C107.751 126.74 107.539 126.305 107.116 126.032C106.719 125.758 106.109 125.621 105.289 125.621H102.864V122.488H104.878C105.699 122.488 106.308 122.351 106.706 122.078C107.104 121.804 107.303 121.369 107.303 120.772C107.303 119.703 106.607 119.168 105.214 119.168C104.518 119.168 103.784 119.293 103.013 119.541C102.242 119.79 101.509 120.15 100.812 120.623L99.9918 117.676C100.688 117.204 101.558 116.818 102.603 116.52C103.647 116.221 104.617 116.072 105.512 116.072C107.303 116.072 108.683 116.482 109.653 117.303C110.648 118.124 111.145 119.156 111.145 120.399C111.145 121.22 110.921 121.941 110.474 122.563C110.051 123.159 109.454 123.595 108.683 123.868Z" fill="#677580"/>
</g>
</svg>
