<svg width="200" height="200" viewBox="0 0 200 200" fill="none" xmlns="http://www.w3.org/2000/svg">
<mask id="mask0_3604_39955" style="mask-type:alpha" maskUnits="userSpaceOnUse" x="0" y="0" width="200" height="200">
<rect width="200" height="200" fill="#D9D9D9"/>
</mask>
<g mask="url(#mask0_3604_39955)">
<path d="M119.516 81.3325C121.925 81.3325 123.877 79.3798 123.877 76.9709C123.877 74.5621 121.925 72.6094 119.516 72.6094C117.107 72.6094 115.154 74.5621 115.154 76.9709C115.154 79.3798 117.107 81.3325 119.516 81.3325Z" fill="#677580"/>
<path d="M153.895 92.561C156.304 92.561 158.256 90.6083 158.256 88.1994C158.256 85.7906 156.304 83.8379 153.895 83.8379C151.486 83.8379 149.533 85.7906 149.533 88.1994C149.533 90.6083 151.486 92.561 153.895 92.561Z" fill="#677580"/>
<path d="M166.602 102.696C169.011 102.696 170.963 100.743 170.963 98.3342C170.963 95.9254 169.011 93.9727 166.602 93.9727C164.193 93.9727 162.24 95.9254 162.24 98.3342C162.24 100.743 164.193 102.696 166.602 102.696Z" fill="#677580"/>
<path d="M159.951 121.914C162.36 121.914 164.313 119.961 164.313 117.552C164.313 115.144 162.36 113.191 159.951 113.191C157.543 113.191 155.59 115.144 155.59 117.552C155.59 119.961 157.543 121.914 159.951 121.914Z" fill="#677580"/>
<path d="M103.891 133.535C106.3 133.535 108.252 131.582 108.252 129.173C108.252 126.765 106.3 124.812 103.891 124.812C101.482 124.812 99.5293 126.765 99.5293 129.173C99.5293 131.582 101.482 133.535 103.891 133.535Z" fill="#677580"/>
<path d="M91.0608 147.525C93.4696 147.525 95.4223 145.572 95.4223 143.164C95.4223 140.755 93.4696 138.802 91.0608 138.802C88.652 138.802 86.6992 140.755 86.6992 143.164C86.6992 145.572 88.652 147.525 91.0608 147.525Z" fill="#677580"/>
<path d="M136.147 129.066C138.556 129.066 140.508 127.114 140.508 124.705C140.508 122.296 138.556 120.343 136.147 120.343C133.738 120.343 131.785 122.296 131.785 124.705C131.785 127.114 133.738 129.066 136.147 129.066Z" fill="#677580"/>
<path d="M123.877 143.164C126.286 143.164 128.239 141.211 128.239 138.802C128.239 136.393 126.286 134.44 123.877 134.44C121.468 134.44 119.516 136.393 119.516 138.802C119.516 141.211 121.468 143.164 123.877 143.164Z" fill="#677580"/>
<path d="M146.17 143.537C148.579 143.537 150.532 141.584 150.532 139.175C150.532 136.766 148.579 134.813 146.17 134.813C143.761 134.813 141.809 136.766 141.809 139.175C141.809 141.584 143.761 143.537 146.17 143.537Z" fill="#677580"/>
<path d="M87.8166 81.3325C90.2255 81.3325 92.1782 79.3798 92.1782 76.9709C92.1782 74.5621 90.2255 72.6094 87.8166 72.6094C85.4078 72.6094 83.4551 74.5621 83.4551 76.9709C83.4551 79.3798 85.4078 81.3325 87.8166 81.3325Z" fill="#677580"/>
<path d="M71.4729 79.3108C73.8817 79.3108 75.8344 77.358 75.8344 74.9492C75.8344 72.5404 73.8817 70.5876 71.4729 70.5876C69.0641 70.5876 67.1113 72.5404 67.1113 74.9492C67.1113 77.358 69.0641 79.3108 71.4729 79.3108Z" fill="#677580"/>
<path d="M54.0979 88.2026C56.5067 88.2026 58.4594 86.2499 58.4594 83.841C58.4594 81.4322 56.5067 79.4795 54.0979 79.4795C51.6891 79.4795 49.7363 81.4322 49.7363 83.841C49.7363 86.2499 51.6891 88.2026 54.0979 88.2026Z" fill="#677580"/>
<path d="M59.7522 104.649C62.161 104.649 64.1137 102.697 64.1137 100.288C64.1137 97.879 62.161 95.9263 59.7522 95.9263C57.3434 95.9263 55.3906 97.879 55.3906 100.288C55.3906 102.697 57.3434 104.649 59.7522 104.649Z" fill="#677580"/>
<path d="M49.8342 119.337C52.243 119.337 54.1958 117.384 54.1958 114.976C54.1958 112.567 52.243 110.614 49.8342 110.614C47.4254 110.614 45.4727 112.567 45.4727 114.976C45.4727 117.384 47.4254 119.337 49.8342 119.337Z" fill="#677580"/>
<path d="M33.5959 131.302C36.0048 131.302 37.9575 129.349 37.9575 126.941C37.9575 124.532 36.0048 122.579 33.5959 122.579C31.1871 122.579 29.2344 124.532 29.2344 126.941C29.2344 129.349 31.1871 131.302 33.5959 131.302Z" fill="#677580"/>
<path d="M38.9729 151.621C41.3817 151.621 43.3344 149.668 43.3344 147.259C43.3344 144.85 41.3817 142.897 38.9729 142.897C36.5641 142.897 34.6113 144.85 34.6113 147.259C34.6113 149.668 36.5641 151.621 38.9729 151.621Z" fill="#677580"/>
<path d="M51.8694 140.869C54.2782 140.869 56.2309 138.916 56.2309 136.507C56.2309 134.098 54.2782 132.146 51.8694 132.146C49.4605 132.146 47.5078 134.098 47.5078 136.507C47.5078 138.916 49.4605 140.869 51.8694 140.869Z" fill="#677580"/>
<path d="M63.4182 149.488C65.827 149.488 67.7797 147.536 67.7797 145.127C67.7797 142.718 65.827 140.765 63.4182 140.765C61.0094 140.765 59.0566 142.718 59.0566 145.127C59.0566 147.536 61.0094 149.488 63.4182 149.488Z" fill="#677580"/>
<path d="M73.6682 133.535C76.077 133.535 78.0298 131.582 78.0298 129.173C78.0298 126.765 76.077 124.812 73.6682 124.812C71.2594 124.812 69.3066 126.765 69.3066 129.173C69.3066 131.582 71.2594 133.535 73.6682 133.535Z" fill="#677580"/>
<path d="M105.08 70.5908C107.489 70.5908 109.442 68.6381 109.442 66.2292C109.442 63.8204 107.489 61.8677 105.08 61.8677C102.671 61.8677 100.719 63.8204 100.719 66.2292C100.719 68.6381 102.671 70.5908 105.08 70.5908Z" fill="#677580"/>
<path d="M103.244 55.3774C105.653 55.3774 107.606 53.4247 107.606 51.0159C107.606 48.607 105.653 46.6543 103.244 46.6543C100.836 46.6543 98.8828 48.607 98.8828 51.0159C98.8828 53.4247 100.836 55.3774 103.244 55.3774Z" fill="#677580"/>
<path d="M122.979 59.1289C125.388 59.1289 127.34 57.1761 127.34 54.7673C127.34 52.3585 125.388 50.4058 122.979 50.4058C120.57 50.4058 118.617 52.3585 118.617 54.7673C118.617 57.1761 120.57 59.1289 122.979 59.1289Z" fill="#677580"/>
<path d="M140.787 62.374C143.196 62.374 145.149 60.4213 145.149 58.0124C145.149 55.6036 143.196 53.6509 140.787 53.6509C138.379 53.6509 136.426 55.6036 136.426 58.0124C136.426 60.4213 138.379 62.374 140.787 62.374Z" fill="#677580"/>
<path d="M136.174 79.3108C138.583 79.3108 140.536 77.358 140.536 74.9492C140.536 72.5404 138.583 70.5876 136.174 70.5876C133.765 70.5876 131.812 72.5404 131.812 74.9492C131.812 77.358 133.765 79.3108 136.174 79.3108Z" fill="#677580"/>
<path d="M158.834 68.4587C161.243 68.4587 163.196 66.506 163.196 64.0972C163.196 61.6883 161.243 59.7356 158.834 59.7356C156.425 59.7356 154.473 61.6883 154.473 64.0972C154.473 66.506 156.425 68.4587 158.834 68.4587Z" fill="#677580"/>
<path d="M166.602 83.4775C169.011 83.4775 170.963 81.5248 170.963 79.1159C170.963 76.7071 169.011 74.7544 166.602 74.7544C164.193 74.7544 162.24 76.7071 162.24 79.1159C162.24 81.5248 164.193 83.4775 166.602 83.4775Z" fill="#677580"/>
<path d="M176.605 83.7114C176.673 83.5831 176.716 83.4433 176.732 83.2992C177.322 80.6293 177.629 77.9044 177.647 75.17C177.647 74.5729 177.615 73.9725 177.582 73.3754C177.55 72.7783 177.488 72.1455 177.427 71.5451C177.365 70.9447 177.268 70.4125 177.173 69.8446C177.081 69.2603 176.955 68.6817 176.797 68.1117C176.764 68.0176 176.764 67.9235 176.732 67.8261C176.459 66.7888 176.123 65.7689 175.726 64.7724C175.505 64.2337 175.285 63.6982 175.032 63.1498C174.778 62.6013 174.496 62.0789 174.214 61.5758C174.022 61.2286 173.834 60.9268 173.613 60.5666C172.966 59.5048 172.239 58.4937 171.439 57.5421H171.407C171.157 57.2175 170.904 56.9125 170.618 56.5945C170.332 56.2764 170.053 55.9973 169.768 55.6826C169.171 55.053 168.541 54.4851 167.879 53.8847C167.688 53.7289 167.532 53.5602 167.344 53.4434L167.279 53.3817C166.649 52.8462 165.981 52.34 165.332 51.8694C164.683 51.3989 163.946 50.9251 163.251 50.5129C162.716 50.1884 162.213 49.9158 161.678 49.6303C161.236 49.4096 160.795 49.1889 160.379 49.0331C159.925 48.7929 159.45 48.592 158.961 48.4328C158.414 48.1821 157.845 47.9822 157.261 47.8356C156.537 47.6125 155.8 47.4337 155.054 47.3002C154.766 47.2172 154.47 47.1639 154.171 47.1412C153.744 47.0478 153.31 46.9849 152.873 46.953C152.497 46.8913 152.117 46.8588 151.741 46.8264C147.486 46.5441 143.011 47.3002 138.409 49.0656C137.244 49.5069 136.109 49.9775 134.879 50.4513C133.967 49.4096 133.256 48.5301 132.484 47.7091C132.013 47.2061 131.539 46.7355 131.066 46.2585L130.942 46.1319C130.407 45.6289 129.839 45.1259 129.303 44.6521C129.211 44.588 129.126 44.514 129.05 44.4314C128.515 44.0225 128.012 43.6136 127.473 43.2339C126.876 42.7926 126.276 42.3837 125.678 42.004C125.081 41.6243 124.449 41.2803 123.851 40.9655C122.022 40.0067 120.087 39.266 118.085 38.7588C117.436 38.603 116.787 38.4343 116.138 38.3499C115.888 38.3028 115.635 38.2714 115.381 38.2558C114.922 38.1742 114.458 38.1211 113.992 38.0968C113.71 38.0725 113.426 38.0627 113.142 38.0676C112.725 38.0136 112.304 37.9919 111.883 38.0027C111.631 37.9972 111.378 38.0081 111.127 38.0351C109.451 38.0696 107.782 38.2696 106.146 38.6322C104.961 38.835 103.792 39.1202 102.647 39.4857C100.883 40.0269 99.1741 40.7332 97.5425 41.5951C97.1012 41.8158 96.6599 42.0689 96.2185 42.3188C95.6538 42.6433 95.1184 42.9516 94.6121 43.2924C94.2032 43.5455 93.7943 43.8603 93.4146 44.1458C92.9609 44.4648 92.5273 44.8116 92.1166 45.1843C91.99 45.3109 91.8635 45.405 91.7369 45.5316C91.2816 45.941 90.8483 46.3743 90.4388 46.8296C90.164 47.0718 89.9208 47.3476 89.7151 47.6507C89.4726 47.8897 89.2551 48.1528 89.0661 48.436C88.7415 48.8157 88.469 49.1921 88.1834 49.6043C87.2026 50.9389 86.3681 52.375 85.6943 53.888V53.9204C85.6599 53.967 85.6387 54.0219 85.6327 54.0794C85.3795 54.6441 85.1264 55.212 84.9057 55.7799C84.7175 56.2829 84.5293 56.8184 84.3703 57.3571C84.2112 57.8958 84.0457 58.3955 83.9289 58.8986C83.5185 60.376 83.2234 61.883 83.0462 63.4061C82.8905 64.4446 82.5432 65.4539 82.2901 66.4956C81.4398 66.2749 80.5896 66.0542 79.7686 65.8952C78.5419 65.6421 77.312 65.4539 76.1145 65.3273C74.9286 65.2029 73.7371 65.14 72.5448 65.1391C70.4053 65.1268 68.2707 65.3444 66.1777 65.7881C65.7616 65.8532 65.3505 65.9475 64.9477 66.0704C64.6232 66.1354 64.3181 66.2295 64.0034 66.3236C63.562 66.4501 63.1207 66.5767 62.7053 66.7325C62.2899 66.8883 61.8226 67.057 61.4072 67.2063C61.2013 67.2762 61.0006 67.3608 60.8068 67.4594C60.2514 67.6789 59.7095 67.9314 59.1842 68.2155C58.6163 68.4979 58.0809 68.7834 57.5616 69.0982C57.3734 69.1923 57.2144 69.2865 57.0262 69.3806C56.8832 69.4647 56.7466 69.559 56.6173 69.6629C55.9877 70.0426 55.3873 70.4839 54.787 70.9253C53.8794 71.6202 53.0126 72.3668 52.1908 73.1612C51.6553 73.6967 51.1199 74.2321 50.6461 74.8001C50.2372 75.2739 49.8608 75.7476 49.4811 76.2507L49.4194 76.3123C48.8201 77.1323 48.2522 77.9836 47.7157 78.8663C47.5275 79.1908 47.3392 79.4959 47.1802 79.8107C46.8557 80.3786 46.5831 80.9789 46.2975 81.576C45.973 82.2997 45.668 83.0266 45.3856 83.7828C45.2266 84.2858 45.0611 84.7563 44.9118 85.2301C44.8502 85.5157 44.7528 85.7981 44.6911 86.0836C44.4177 87.0567 44.2074 88.0464 44.0616 89.0465C44.0616 89.1082 44.0291 89.1698 44.0291 89.2347C43.935 89.8643 43.8734 90.5328 43.8085 91.1559C43.7468 92.0061 43.7143 92.8888 43.7143 93.7715C43.7468 94.8424 43.8085 95.9134 43.935 96.9875C43.935 97.0492 43.9675 97.1433 43.9675 97.2082C44.0616 97.9319 44.2174 98.688 44.3764 99.4117C44.3764 99.4766 44.4088 99.5383 44.4088 99.6032C44.5646 100.359 44.7853 101.083 45.006 101.839C45.3266 102.983 45.7379 104.1 46.2359 105.178V105.211C46.33 105.399 46.3916 105.591 46.489 105.779C45.0727 106.072 43.6731 106.44 42.2962 106.882H42.2637C41.5488 107.075 40.8447 107.306 40.1544 107.573C39.6189 107.765 39.0834 107.986 38.5772 108.174C38.0709 108.362 37.6036 108.583 37.1266 108.823C36.8021 108.949 36.497 109.105 36.1822 109.264C34.2949 110.182 32.519 111.313 30.8893 112.636C30.8569 112.668 30.7952 112.698 30.7627 112.73C30.2885 113.103 29.8356 113.503 29.4062 113.927C29.3043 114.003 29.2097 114.087 29.1239 114.181C28.8129 114.458 28.5182 114.752 28.2412 115.063C28.1796 115.125 28.1146 115.187 28.053 115.252C27.8323 115.505 27.6116 115.755 27.4234 116.008C27.181 116.259 26.9637 116.532 26.7744 116.825C26.5882 117.02 26.4288 117.238 26.3006 117.474C25.9564 117.916 25.641 118.379 25.3562 118.86C24.9778 119.451 24.6301 120.061 24.3145 120.687C23.9724 121.299 23.6679 121.931 23.4026 122.579C23.2484 122.903 23.1214 123.24 23.0229 123.585C22.7757 124.146 22.576 124.727 22.4258 125.321C22.2051 126.045 21.9845 126.769 21.8254 127.525C21.6663 128.167 21.5406 128.817 21.449 129.472V129.537C21.4165 129.631 21.4166 129.725 21.3841 129.861C21.29 130.51 21.1959 131.215 21.1634 131.909V131.942C21.1269 132.107 21.1063 132.275 21.1018 132.445C20.9479 134.249 20.9685 136.064 21.1634 137.864V137.897C21.2247 138.711 21.3331 139.522 21.4879 140.324V140.356C21.7409 141.73 22.11 143.079 22.5913 144.39C23.1488 145.979 23.8779 147.503 24.7656 148.933C25.7812 150.583 26.987 152.108 28.358 153.477C29.5165 154.653 30.7822 155.719 32.1387 156.66C33.5131 157.618 34.9568 158.471 36.4581 159.214C38.3869 160.179 40.4024 160.959 42.4779 161.544C44.0441 161.985 45.6475 162.28 47.2679 162.427C47.9591 162.492 48.6536 162.554 49.3448 162.554C51.0162 162.583 52.686 162.436 54.3262 162.112C55.1145 161.96 55.8926 161.76 56.6562 161.512C57.806 161.178 58.9324 160.768 60.028 160.285C61.9426 159.4 63.7682 158.334 65.4799 157.102C66.5609 156.349 67.5928 155.529 68.5694 154.645C70.1326 153.302 71.6069 151.86 72.9829 150.326C74.6684 151.365 76.4154 152.301 78.2141 153.13C79.6733 153.812 81.1785 154.392 82.7185 154.866C83.4746 155.116 84.2307 155.336 84.9577 155.515C86.3773 155.859 87.8196 156.102 89.2738 156.242H89.3062C90.3633 156.342 91.4264 156.362 92.4865 156.303C93.8751 156.274 95.258 156.116 96.6177 155.833H96.6469C97.4591 155.693 98.2596 155.492 99.0418 155.232C100.629 154.755 102.17 154.132 103.644 153.373C107.088 151.539 110.225 149.179 112.941 146.376C113.006 146.44 113.08 146.494 113.162 146.535C113.759 147.038 114.233 147.418 114.674 147.833C115.177 148.275 115.648 148.749 116.154 149.219H116.186C116.305 149.344 116.431 149.46 116.566 149.566C117.995 150.748 119.523 151.802 121.135 152.717C122.449 153.52 123.842 154.185 125.292 154.703C125.987 154.986 126.71 155.206 127.437 155.427C128.856 155.844 130.313 156.119 131.786 156.248H131.818C132.884 156.374 133.96 156.406 135.031 156.342C136.396 156.303 137.756 156.155 139.097 155.901H139.127C139.948 155.742 140.765 155.554 141.586 155.333C142.57 155.076 143.538 154.76 144.484 154.389C145.106 154.169 145.716 153.917 146.311 153.633C155.453 149.534 160.934 142.161 162.385 131.89C162.761 129.118 163.865 127.385 166.104 125.747C175.716 118.656 179.938 106.301 176.281 95.0826C174.999 91.052 173.675 87.4596 176.605 83.7114Z" stroke="#677580" stroke-width="3.27" stroke-miterlimit="10"/>
<path d="M70.3054 94.083H79.0991C81.3478 94.083 83.0945 94.6351 84.3392 95.7394C85.584 96.8436 86.2064 98.4096 86.2064 100.437C86.2064 102.445 85.584 104.011 84.3392 105.135C83.0945 106.26 81.3478 106.822 79.0991 106.822H73.4073V115.314H70.3054V94.083ZM78.7679 104.322C81.7393 104.322 83.225 103.027 83.225 100.437C83.225 97.8675 81.7393 96.5826 78.7679 96.5826H73.4073V104.322H78.7679ZM107.84 94.083H110.309V115.314H107.508L107.539 99.9555L101.214 111.911H99.1062L92.7518 100.106L92.7819 115.314H89.9812V94.083H92.4808L100.19 108.779L107.84 94.083ZM124.247 112.755H128.915V115.314H116.508V112.755H121.145V97.7872L117.441 100.046L116.116 97.727L122.019 94.083H124.247V112.755ZM139.895 115.555C137.426 115.555 135.539 114.632 134.234 112.785C132.949 110.938 132.306 108.247 132.306 104.714C132.306 101.18 132.949 98.4899 134.234 96.6428C135.539 94.7757 137.426 93.8421 139.895 93.8421C142.365 93.8421 144.242 94.7656 145.527 96.6127C146.832 98.4598 147.485 101.15 147.485 104.684C147.485 108.237 146.832 110.938 145.527 112.785C144.242 114.632 142.365 115.555 139.895 115.555ZM139.895 113.056C141.441 113.056 142.576 112.383 143.299 111.038C144.021 109.693 144.383 107.575 144.383 104.684C144.383 101.813 144.021 99.7146 143.299 98.3895C142.576 97.0444 141.441 96.3718 139.895 96.3718C138.35 96.3718 137.215 97.0444 136.492 98.3895C135.77 99.7146 135.408 101.813 135.408 104.684C135.408 107.555 135.77 109.673 136.492 111.038C137.215 112.383 138.35 113.056 139.895 113.056Z" fill="#677580"/>
</g>
</svg>
