<svg width="200" height="200" viewBox="0 0 200 200" fill="none" xmlns="http://www.w3.org/2000/svg">
<mask id="mask0_3604_39954" style="mask-type:alpha" maskUnits="userSpaceOnUse" x="0" y="0" width="200" height="200">
<rect width="200" height="200" fill="#D9D9D9"/>
</mask>
<g mask="url(#mask0_3604_39954)">
<path d="M148.919 85.9568C150.314 85.9568 151.444 84.8264 151.444 83.432C151.444 82.0376 150.314 80.9072 148.919 80.9072C147.525 80.9072 146.395 82.0376 146.395 83.432C146.395 84.8264 147.525 85.9568 148.919 85.9568Z" fill="#677580"/>
<path d="M162.814 83.1042C164.208 83.1042 165.339 81.9738 165.339 80.5795C165.339 79.1851 164.208 78.0547 162.814 78.0547C161.419 78.0547 160.289 79.1851 160.289 80.5795C160.289 81.9738 161.419 83.1042 162.814 83.1042Z" fill="#677580"/>
<path d="M166.792 65.0515C168.187 65.0515 169.317 63.9211 169.317 62.5267C169.317 61.1323 168.187 60.002 166.792 60.002C165.398 60.002 164.268 61.1323 164.268 62.5267C164.268 63.9211 165.398 65.0515 166.792 65.0515Z" fill="#677580"/>
<path d="M131.585 67.5761C132.98 67.5761 134.11 66.4458 134.11 65.0514C134.11 63.657 132.98 62.5266 131.585 62.5266C130.191 62.5266 129.061 63.657 129.061 65.0514C129.061 66.4458 130.191 67.5761 131.585 67.5761Z" fill="#677580"/>
<path d="M85.1576 78.0515C86.552 78.0515 87.6824 76.9211 87.6824 75.5267C87.6824 74.1323 86.552 73.002 85.1576 73.002C83.7632 73.002 82.6328 74.1323 82.6328 75.5267C82.6328 76.9211 83.7632 78.0515 85.1576 78.0515Z" fill="#677580"/>
<path d="M115.966 127.752C117.361 127.752 118.491 126.622 118.491 125.227C118.491 123.833 117.361 122.702 115.966 122.702C114.572 122.702 113.441 123.833 113.441 125.227C113.441 126.622 114.572 127.752 115.966 127.752Z" fill="#677580"/>
<path d="M57.0013 130.28C58.3957 130.28 59.5261 129.15 59.5261 127.755C59.5261 126.361 58.3957 125.23 57.0013 125.23C55.6069 125.23 54.4766 126.361 54.4766 127.755C54.4766 129.15 55.6069 130.28 57.0013 130.28Z" fill="#677580"/>
<path d="M60.0638 145.357C61.4582 145.357 62.5886 144.227 62.5886 142.832C62.5886 141.438 61.4582 140.308 60.0638 140.308C58.6694 140.308 57.5391 141.438 57.5391 142.832C57.5391 144.227 58.6694 145.357 60.0638 145.357Z" fill="#677580"/>
<path d="M97.7181 140.051C99.1125 140.051 100.243 138.921 100.243 137.526C100.243 136.132 99.1125 135.001 97.7181 135.001C96.3237 135.001 95.1934 136.132 95.1934 137.526C95.1934 138.921 96.3237 140.051 97.7181 140.051Z" fill="#677580"/>
<path d="M113.474 84.9411C114.868 84.9411 115.999 83.8108 115.999 82.4164C115.999 81.022 114.868 79.8916 113.474 79.8916C112.08 79.8916 110.949 81.022 110.949 82.4164C110.949 83.8108 112.08 84.9411 113.474 84.9411Z" fill="#677580"/>
<path d="M101.083 79.8559C102.478 79.8559 103.608 78.7256 103.608 77.3312C103.608 75.9368 102.478 74.8064 101.083 74.8064C99.689 74.8064 98.5586 75.9368 98.5586 77.3312C98.5586 78.7256 99.689 79.8559 101.083 79.8559Z" fill="#677580"/>
<path d="M146.394 149.031C147.788 149.031 148.919 147.9 148.919 146.506C148.919 145.112 147.788 143.981 146.394 143.981C145 143.981 143.869 145.112 143.869 146.506C143.869 147.9 145 149.031 146.394 149.031Z" fill="#677580"/>
<path d="M151.869 125.779C153.263 125.779 154.393 124.648 154.393 123.254C154.393 121.86 153.263 120.729 151.869 120.729C150.474 120.729 149.344 121.86 149.344 123.254C149.344 124.648 150.474 125.779 151.869 125.779Z" fill="#677580"/>
<path d="M124.492 80.2907C125.886 80.2907 127.016 79.1604 127.016 77.766C127.016 76.3716 125.886 75.2412 124.492 75.2412C123.097 75.2412 121.967 76.3716 121.967 77.766C121.967 79.1604 123.097 80.2907 124.492 80.2907Z" fill="#677580"/>
<path d="M117.718 65.0515C119.113 65.0515 120.243 63.9211 120.243 62.5267C120.243 61.1323 119.113 60.002 117.718 60.002C116.324 60.002 115.193 61.1323 115.193 62.5267C115.193 63.9211 116.324 65.0515 117.718 65.0515Z" fill="#677580"/>
<path d="M130.15 92.8432C131.544 92.8432 132.675 91.7129 132.675 90.3185C132.675 88.9241 131.544 87.7937 130.15 87.7937C128.755 87.7937 127.625 88.9241 127.625 90.3185C127.625 91.7129 128.755 92.8432 130.15 92.8432Z" fill="#677580"/>
<path d="M152.708 55.7375C154.103 55.7375 155.233 54.6071 155.233 53.2128C155.233 51.8184 154.103 50.688 152.708 50.688C151.314 50.688 150.184 51.8184 150.184 53.2128C150.184 54.6071 151.314 55.7375 152.708 55.7375Z" fill="#677580"/>
<path d="M155.119 71.5354C156.513 71.5354 157.643 70.405 157.643 69.0106C157.643 67.6162 156.513 66.4858 155.119 66.4858C153.724 66.4858 152.594 67.6162 152.594 69.0106C152.594 70.405 153.724 71.5354 155.119 71.5354Z" fill="#677580"/>
<path d="M166.908 94.8845C168.302 94.8845 169.432 93.7541 169.432 92.3597C169.432 90.9653 168.302 89.835 166.908 89.835C165.513 89.835 164.383 90.9653 164.383 92.3597C164.383 93.7541 165.513 94.8845 166.908 94.8845Z" fill="#677580"/>
<path d="M169.318 110.682C170.712 110.682 171.843 109.552 171.843 108.157C171.843 106.763 170.712 105.633 169.318 105.633C167.923 105.633 166.793 106.763 166.793 108.157C166.793 109.552 167.923 110.682 169.318 110.682Z" fill="#677580"/>
<path d="M155.238 137.205C156.632 137.205 157.762 136.075 157.762 134.681C157.762 133.286 156.632 132.156 155.238 132.156C153.843 132.156 152.713 133.286 152.713 134.681C152.713 136.075 153.843 137.205 155.238 137.205Z" fill="#677580"/>
<path d="M130.445 134.677C131.839 134.677 132.969 133.547 132.969 132.152C132.969 130.758 131.839 129.627 130.445 129.627C129.05 129.627 127.92 130.758 127.92 132.152C127.92 133.547 129.05 134.677 130.445 134.677Z" fill="#677580"/>
<path d="M121.298 142.573C122.693 142.573 123.823 141.442 123.823 140.048C123.823 138.654 122.693 137.523 121.298 137.523C119.904 137.523 118.773 138.654 118.773 140.048C118.773 141.442 119.904 142.573 121.298 142.573Z" fill="#677580"/>
<path d="M132.855 150.475C134.249 150.475 135.38 149.344 135.38 147.95C135.38 146.556 134.249 145.425 132.855 145.425C131.46 145.425 130.33 146.556 130.33 147.95C130.33 149.344 131.46 150.475 132.855 150.475Z" fill="#677580"/>
<path d="M89.5287 127.713C90.9231 127.713 92.0534 126.583 92.0534 125.188C92.0534 123.794 90.9231 122.664 89.5287 122.664C88.1343 122.664 87.0039 123.794 87.0039 125.188C87.0039 126.583 88.1343 127.713 89.5287 127.713Z" fill="#677580"/>
<path d="M71.9681 128.797C73.3625 128.797 74.4929 127.666 74.4929 126.272C74.4929 124.878 73.3625 123.747 71.9681 123.747C70.5737 123.747 69.4434 124.878 69.4434 126.272C69.4434 127.666 70.5737 128.797 71.9681 128.797Z" fill="#677580"/>
<path d="M75.4505 143.978C76.8449 143.978 77.9753 142.847 77.9753 141.453C77.9753 140.059 76.8449 138.928 75.4505 138.928C74.0562 138.928 72.9258 140.059 72.9258 141.453C72.9258 142.847 74.0562 143.978 75.4505 143.978Z" fill="#677580"/>
<path d="M79.1263 88.9553C80.5207 88.9553 81.6511 87.8249 81.6511 86.4305C81.6511 85.0361 80.5207 83.9058 79.1263 83.9058C77.7319 83.9058 76.6016 85.0361 76.6016 86.4305C76.6016 87.8249 77.7319 88.9553 79.1263 88.9553Z" fill="#677580"/>
<path d="M141.757 78.0515C143.152 78.0515 144.282 76.9211 144.282 75.5267C144.282 74.1323 143.152 73.002 141.757 73.002C140.363 73.002 139.232 74.1323 139.232 75.5267C139.232 76.9211 140.363 78.0515 141.757 78.0515Z" fill="#677580"/>
<path d="M86.2826 149.751C87.677 149.751 88.8074 148.621 88.8074 147.226C88.8074 145.832 87.677 144.702 86.2826 144.702C84.8882 144.702 83.7578 145.832 83.7578 147.226C83.7578 148.621 84.8882 149.751 86.2826 149.751Z" fill="#677580"/>
<path d="M36.4193 152.276C37.8137 152.276 38.9441 151.145 38.9441 149.751C38.9441 148.357 37.8137 147.226 36.4193 147.226C35.0249 147.226 33.8945 148.357 33.8945 149.751C33.8945 151.145 35.0249 152.276 36.4193 152.276Z" fill="#677580"/>
<path d="M50.0013 155.521C51.3957 155.521 52.5261 154.391 52.5261 152.996C52.5261 151.602 51.3957 150.472 50.0013 150.472C48.6069 150.472 47.4766 151.602 47.4766 152.996C47.4766 154.391 48.6069 155.521 50.0013 155.521Z" fill="#677580"/>
<path d="M100.189 54.3293C101.583 54.3293 102.714 53.1989 102.714 51.8046C102.714 50.4102 101.583 49.2798 100.189 49.2798C98.7944 49.2798 97.6641 50.4102 97.6641 51.8046C97.6641 53.1989 98.7944 54.3293 100.189 54.3293Z" fill="#677580"/>
<path d="M93.517 66.1614C94.9113 66.1614 96.0417 65.031 96.0417 63.6366C96.0417 62.2422 94.9113 61.1118 93.517 61.1118C92.1226 61.1118 90.9922 62.2422 90.9922 63.6366C90.9922 65.031 92.1226 66.1614 93.517 66.1614Z" fill="#677580"/>
<path d="M115.156 49.2763C116.55 49.2763 117.68 48.146 117.68 46.7516C117.68 45.3572 116.55 44.2268 115.156 44.2268C113.761 44.2268 112.631 45.3572 112.631 46.7516C112.631 48.146 113.761 49.2763 115.156 49.2763Z" fill="#677580"/>
<path d="M59.767 80.5796C61.1613 80.5796 62.2917 79.4492 62.2917 78.0548C62.2917 76.6604 61.1613 75.53 59.767 75.53C58.3726 75.53 57.2422 76.6604 57.2422 78.0548C57.2422 79.4492 58.3726 80.5796 59.767 80.5796Z" fill="#677580"/>
<path d="M53.0931 92.4116C54.4875 92.4116 55.6179 91.2812 55.6179 89.8868C55.6179 88.4924 54.4875 87.3621 53.0931 87.3621C51.6987 87.3621 50.5684 88.4924 50.5684 89.8868C50.5684 91.2812 51.6987 92.4116 53.0931 92.4116Z" fill="#677580"/>
<path d="M66.6771 92.4116C68.0715 92.4116 69.2019 91.2812 69.2019 89.8868C69.2019 88.4924 68.0715 87.3621 66.6771 87.3621C65.2827 87.3621 64.1523 88.4924 64.1523 89.8868C64.1523 91.2812 65.2827 92.4116 66.6771 92.4116Z" fill="#677580"/>
<path d="M33.7728 125.461C35.1672 125.461 36.2976 124.33 36.2976 122.936C36.2976 121.542 35.1672 120.411 33.7728 120.411C32.3784 120.411 31.248 121.542 31.248 122.936C31.248 124.33 32.3784 125.461 33.7728 125.461Z" fill="#677580"/>
<path d="M27.099 137.293C28.4934 137.293 29.6238 136.162 29.6238 134.768C29.6238 133.374 28.4934 132.243 27.099 132.243C25.7046 132.243 24.5742 133.374 24.5742 134.768C24.5742 136.162 25.7046 137.293 27.099 137.293Z" fill="#677580"/>
<path d="M48.7396 120.408C50.134 120.408 51.2644 119.278 51.2644 117.883C51.2644 116.489 50.134 115.358 48.7396 115.358C47.3452 115.358 46.2148 116.489 46.2148 117.883C46.2148 119.278 47.3452 120.408 48.7396 120.408Z" fill="#677580"/>
<path d="M40.6849 137.293C42.0793 137.293 43.2097 136.162 43.2097 134.768C43.2097 133.374 42.0793 132.243 40.6849 132.243C39.2905 132.243 38.1602 133.374 38.1602 134.768C38.1602 136.162 39.2905 137.293 40.6849 137.293Z" fill="#677580"/>
<path d="M176.585 83.6788C176.649 83.5504 176.692 83.4123 176.711 83.2699C177.298 80.6048 177.603 77.8857 177.623 75.1569C177.623 74.5565 177.594 73.9594 177.561 73.359C177.529 72.7587 177.467 72.1323 177.402 71.532C177.337 70.9316 177.247 70.3962 177.152 69.8315C177.061 69.2468 176.934 68.6681 176.773 68.0986C176.74 68.0012 176.74 67.9071 176.711 67.813C176.435 66.7751 176.098 65.7543 175.702 64.756C175.481 64.2206 175.261 63.6851 175.007 63.1496C174.754 62.6142 174.472 62.0787 174.19 61.5725C174.001 61.2285 173.81 60.9234 173.589 60.5664C172.943 59.5028 172.216 58.4906 171.415 57.5387H171.386C171.133 57.2141 170.88 56.9091 170.597 56.5943C170.315 56.2795 170.029 55.9972 169.747 55.6824C169.147 55.0334 168.517 54.4849 167.855 53.8846C167.685 53.7279 167.506 53.5806 167.32 53.4432L167.258 53.3816C166.625 52.8461 165.96 52.3399 165.311 51.8693C164.662 51.3987 163.925 50.9217 163.234 50.5128C162.695 50.1883 162.192 49.9124 161.657 49.6301C161.215 49.4094 160.774 49.1888 160.359 49.033C159.904 48.7933 159.429 48.5925 158.94 48.4326C158.393 48.181 157.824 47.9811 157.24 47.8355C156.516 47.6121 155.779 47.4322 155.033 47.2968C154.745 47.2154 154.449 47.1632 154.15 47.141C153.723 47.0463 153.289 46.9834 152.852 46.9528C152.473 46.8879 152.096 46.8587 151.717 46.8263C147.462 46.5407 142.987 47.2968 138.385 49.0622C137.22 49.5035 136.088 49.9773 134.858 50.4511C133.943 49.4094 133.235 48.5267 132.463 47.7089C131.989 47.2027 131.518 46.7354 131.045 46.2583L130.918 46.1318C130.383 45.6288 129.815 45.1225 129.295 44.652C129.204 44.5869 129.119 44.513 129.042 44.4313C128.507 44.0224 128.004 43.6103 127.468 43.2338C126.868 42.7925 126.271 42.3836 125.671 42.0039C125.07 41.6242 124.444 41.2802 123.844 40.9654C122.015 40.0047 120.079 39.2639 118.077 38.7587C117.435 38.5883 116.785 38.4518 116.13 38.3498C115.88 38.3025 115.627 38.271 115.374 38.2557C114.916 38.1725 114.453 38.1194 113.988 38.0967C113.704 38.0696 113.419 38.0588 113.134 38.0642C112.717 38.0129 112.296 37.9923 111.875 38.0025C111.623 37.9972 111.37 38.008 111.119 38.035C109.444 38.0679 107.776 38.2679 106.141 38.6321C104.956 38.8334 103.787 39.1175 102.643 39.4824C100.879 40.0249 99.1694 40.7322 97.5379 41.595C97.0966 41.8156 96.6552 42.0688 96.2139 42.3187C95.646 42.6432 95.1105 42.9482 94.6075 43.2922C94.1953 43.5454 93.7865 43.8601 93.41 44.1425C92.9561 44.4624 92.5226 44.8103 92.1119 45.1842C91.9886 45.3107 91.862 45.4048 91.7355 45.5314C91.2786 45.9392 90.8452 46.3726 90.4374 46.8295C90.1617 47.0705 89.9175 47.3452 89.7105 47.6473C89.4705 47.8897 89.2532 48.1537 89.0614 48.4359C88.7369 48.8156 88.4643 49.192 88.182 49.6009C87.199 50.9358 86.3633 52.3731 85.6897 53.8878V53.9203C85.6605 53.9819 85.628 54.0144 85.628 54.076C85.3749 54.6439 85.125 55.2119 84.9044 55.7798C84.7129 56.2828 84.5247 56.8182 84.3689 57.3537C84.2131 57.8892 84.0444 58.3954 83.9275 58.8984C83.514 60.3751 83.2188 61.8824 83.0448 63.406C82.8858 64.4445 82.5386 65.4537 82.2887 66.4922C81.4352 66.2715 80.585 66.0508 79.7672 65.8951C78.5372 65.6419 77.3073 65.4537 76.1098 65.3272C74.924 65.2026 73.7325 65.1398 72.5401 65.1389C70.4006 65.1267 68.266 65.3442 66.173 65.788C65.7576 65.8511 65.3476 65.9455 64.9463 66.0703C64.6218 66.132 64.2973 66.2293 63.9987 66.3234C63.5574 66.45 63.1193 66.5733 62.7006 66.7323C62.282 66.8913 61.818 67.0569 61.4026 67.2061C61.198 67.2755 60.9985 67.359 60.8055 67.456C60.2506 67.6768 59.7088 67.9293 59.1829 68.2121C58.6149 68.4977 58.0795 68.7801 57.5603 69.0949C57.372 69.189 57.2163 69.2863 57.0248 69.3804C56.8811 69.4634 56.7444 69.5578 56.6159 69.6628C55.9863 70.0424 55.386 70.4838 54.7888 70.9251C53.8792 71.6174 53.0122 72.3641 52.1927 73.1611C51.6572 73.6965 51.1185 74.232 50.648 74.7837C50.2391 75.2575 49.8594 75.728 49.4797 76.2343L49.418 76.296C48.8209 77.1181 48.2541 77.9694 47.7175 78.8499C47.5261 79.1745 47.3378 79.4795 47.1821 79.7943C46.8575 80.3622 46.5817 80.9593 46.2994 81.5597C45.9749 82.2833 45.6503 83.007 45.3842 83.7664C45.2252 84.2694 45.0597 84.74 44.9104 85.2138C44.8488 85.4994 44.7547 85.7817 44.6898 86.064C44.4178 87.0374 44.2075 88.027 44.0602 89.0269C44.0602 89.0918 44.0277 89.1534 44.0277 89.2151C43.9336 89.8641 43.872 90.5132 43.8103 91.1395C43.7454 91.9898 43.713 92.8724 43.713 93.7551C43.7454 94.8261 43.8103 95.897 43.9336 96.9679C43.9336 97.0328 43.9661 97.1269 43.9661 97.1886C44.0602 97.9155 44.2192 98.6716 44.375 99.3953C44.375 99.457 44.4074 99.5219 44.4074 99.5835C44.5664 100.34 44.7871 101.067 45.0078 101.823C45.3284 102.966 45.7386 104.083 46.2345 105.162V105.194C46.3286 105.383 46.3935 105.571 46.4876 105.762C45.0718 106.056 43.6722 106.423 42.2948 106.863H42.2656C41.5497 107.057 40.8445 107.289 40.153 107.557C39.6175 107.745 39.0821 107.966 38.5791 108.157C38.0761 108.349 37.6055 108.566 37.1284 108.806C36.8039 108.93 36.4989 109.089 36.1841 109.245C34.2956 110.164 32.5187 111.296 30.8879 112.62C30.8555 112.649 30.7938 112.681 30.7613 112.714C30.2881 113.087 29.8363 113.487 29.4081 113.911C29.3051 113.985 29.2094 114.069 29.1225 114.161C28.798 114.447 28.5254 114.729 28.2398 115.044L28.0516 115.235C27.8309 115.485 27.6103 115.738 27.422 115.991C27.1789 116.242 26.9615 116.515 26.773 116.809C26.5883 116.997 26.429 117.209 26.2992 117.439C25.9561 117.882 25.6407 118.346 25.3549 118.828C24.9774 119.418 24.6308 120.028 24.3164 120.655C23.9732 121.265 23.6676 121.896 23.4012 122.543C23.2479 122.869 23.1209 123.207 23.0215 123.553C22.7763 124.113 22.5766 124.693 22.4244 125.286C22.2038 126.012 21.9831 126.736 21.8241 127.492C21.6661 128.135 21.5405 128.785 21.4476 129.439V129.501C21.4152 129.598 21.4151 129.693 21.3827 129.826C21.2886 130.475 21.1945 131.179 21.1653 131.873V131.906C21.1275 132.071 21.1058 132.239 21.1004 132.409C20.9475 134.213 20.9693 136.028 21.1653 137.828V137.861C21.2236 138.676 21.332 139.486 21.4898 140.288V140.317C21.7408 141.691 22.1088 143.04 22.5899 144.351C23.1481 145.94 23.8783 147.464 24.7675 148.894C25.781 150.546 26.9869 152.071 28.3599 153.438C29.5185 154.614 30.7842 155.68 32.1405 156.621C35.2961 158.799 38.7879 160.443 42.4765 161.489C44.0331 161.94 45.6278 162.247 47.2405 162.407C47.935 162.469 48.6262 162.534 49.3207 162.534C50.991 162.562 52.6595 162.414 54.2988 162.093C55.0882 161.941 55.8674 161.74 56.6321 161.492C57.7821 161.158 58.9085 160.747 60.0039 160.262C61.918 159.378 63.7436 158.313 65.4558 157.082C66.5357 156.328 67.5665 155.507 68.542 154.622C70.106 153.282 71.5803 151.84 72.9555 150.306C74.6425 151.343 76.3893 152.279 78.1868 153.11C79.6469 153.792 81.1531 154.371 82.6943 154.843C83.4505 155.096 84.2066 155.317 84.9303 155.492C86.35 155.836 87.7923 156.079 89.2464 156.219H89.2789C90.3371 156.317 91.4011 156.338 92.4624 156.281C93.85 156.249 95.2318 156.091 96.5903 155.807H96.6228C97.4344 155.666 98.2348 155.466 99.0177 155.21C100.605 154.731 102.145 154.109 103.619 153.35C107.063 151.516 110.199 149.156 112.914 146.353C112.981 146.415 113.055 146.468 113.134 146.512C113.735 147.015 114.205 147.395 114.647 147.811C115.153 148.252 115.62 148.722 116.13 149.196H116.159C116.277 149.321 116.404 149.437 116.539 149.543C117.967 150.725 119.496 151.779 121.108 152.695C122.425 153.494 123.819 154.159 125.268 154.681C125.959 154.963 126.686 155.184 127.41 155.404C128.829 155.819 130.286 156.094 131.759 156.225H131.791C132.857 156.349 133.932 156.381 135.004 156.319C136.369 156.278 137.728 156.131 139.07 155.878H139.102C139.92 155.719 140.741 155.531 141.559 155.31C142.544 155.051 143.512 154.736 144.46 154.366C145.082 154.145 145.692 153.893 146.287 153.61C155.426 149.511 160.91 142.138 162.358 131.867C162.737 129.095 163.841 127.359 166.077 125.724C175.689 118.633 179.911 106.278 176.257 95.0597C174.978 91.0129 173.654 87.4432 176.585 83.6788Z" stroke="#677580" stroke-width="3.27" stroke-miterlimit="10"/>
<path d="M65.9285 96.6758H74.7222C76.9708 96.6758 78.7175 97.2279 79.9623 98.3322C81.207 99.4364 81.8294 101.002 81.8294 103.03C81.8294 105.038 81.207 106.604 79.9623 107.728C78.7175 108.853 76.9708 109.415 74.7222 109.415H69.0304V117.907H65.9285V96.6758ZM74.3909 106.915C77.3623 106.915 78.848 105.62 78.848 103.03C78.848 100.46 77.3623 99.1754 74.3909 99.1754H69.0304V106.915H74.3909ZM103.463 96.6758H105.932V117.907H103.131L103.162 102.548L96.8373 114.504H94.7292L88.3749 102.699L88.405 117.907H85.6042V96.6758H88.1038L95.8134 111.372L103.463 96.6758ZM124.749 115.347V117.907H110.836V115.588L118.154 107.578C119.097 106.554 119.78 105.62 120.202 104.777C120.623 103.934 120.834 103.1 120.834 102.277C120.834 101.193 120.523 100.37 119.9 99.8078C119.278 99.2457 118.385 98.9646 117.22 98.9646C115.232 98.9646 113.265 99.7375 111.317 101.283L110.233 98.9947C111.077 98.2117 112.141 97.5893 113.426 97.1275C114.71 96.6658 116.005 96.4349 117.31 96.4349C119.338 96.4349 120.944 96.9468 122.129 97.9708C123.313 98.9746 123.906 100.34 123.906 102.066C123.906 103.291 123.635 104.456 123.093 105.56C122.571 106.664 121.687 107.899 120.442 109.264L114.751 115.347H124.749ZM128.261 114.323H131.844V117.907H128.261V114.323ZM143.718 104.476C145.044 104.476 146.208 104.757 147.212 105.319C148.216 105.881 148.989 106.674 149.531 107.698C150.093 108.722 150.374 109.897 150.374 111.222C150.374 112.587 150.063 113.791 149.44 114.835C148.838 115.879 147.965 116.693 146.82 117.275C145.696 117.837 144.381 118.118 142.875 118.118C141.57 118.118 140.275 117.887 138.99 117.425C137.725 116.964 136.671 116.341 135.828 115.558L136.912 113.269C138.82 114.815 140.817 115.588 142.905 115.588C144.311 115.588 145.405 115.217 146.188 114.474C146.971 113.711 147.362 112.647 147.362 111.282C147.362 109.977 146.971 108.933 146.188 108.15C145.405 107.367 144.361 106.975 143.056 106.975C141.189 106.975 139.653 107.698 138.448 109.144H136.461V96.6758H149.47V99.1754H139.532V105.861C140.637 104.937 142.032 104.476 143.718 104.476Z" fill="#677580"/>
</g>
</svg>
