<svg width="200" height="200" viewBox="0 0 200 200" fill="none" xmlns="http://www.w3.org/2000/svg">
<mask id="mask0_3604_39956" style="mask-type:alpha" maskUnits="userSpaceOnUse" x="0" y="0" width="200" height="200">
<rect width="200" height="200" fill="#D9D9D9"/>
</mask>
<g mask="url(#mask0_3604_39956)">
<path d="M63.254 127.065C51.3863 128.208 38.915 127.39 37.1431 113.938C35.6016 102.174 46.7619 92.4551 58.6296 92.4551C58.6232 88.6422 59.6332 84.8964 61.5557 81.6036C63.4781 78.3108 66.2436 75.5899 69.5672 73.7211C72.8908 71.8524 76.6525 70.9033 80.4648 70.9717C84.2772 71.04 88.0024 72.1233 91.2569 74.11C94.2923 67.8689 99.3544 62.8416 105.616 59.8494C111.878 56.8573 118.97 56.077 125.732 57.6362C132.495 59.1954 138.529 63.0018 142.849 68.4337C147.168 73.8656 149.518 80.6018 149.515 87.5419C149.515 87.9572 149.469 88.3596 149.453 88.7685C153.654 90.2393 157.294 92.9788 159.87 96.6082C162.446 100.238 163.83 104.578 163.833 109.028C163.833 120.893 154.214 126.682 142.346 126.682" stroke="#677580" stroke-width="4.27" stroke-miterlimit="10"/>
<path d="M76.7177 55.7323C81.3382 55.7323 85.0838 51.9866 85.0838 47.3661C85.0838 42.7456 81.3382 39 76.7177 39C72.0972 39 68.3516 42.7456 68.3516 47.3661C68.3516 51.9866 72.0972 55.7323 76.7177 55.7323Z" stroke="#677580" stroke-width="4.27" stroke-miterlimit="10"/>
<path d="M56.786 70.4915C60.4799 70.4915 63.4744 67.497 63.4744 63.8031C63.4744 60.1092 60.4799 57.1147 56.786 57.1147C53.0921 57.1147 50.0977 60.1092 50.0977 63.8031C50.0977 67.497 53.0921 70.4915 56.786 70.4915Z" stroke="#677580" stroke-width="4.27" stroke-miterlimit="10"/>
<path d="M80.8291 107.193C79.2519 107.193 77.7721 106.979 76.3896 106.55C75.0072 106.122 73.8389 105.518 72.8848 104.739L74.1407 101.994C75.1337 102.753 76.1754 103.308 77.2658 103.659C78.3757 104.009 79.5732 104.184 80.8583 104.184C82.2797 104.184 83.3701 103.941 84.1294 103.454C84.9083 102.948 85.2977 102.247 85.2977 101.351C85.2977 100.573 84.9375 99.9787 84.2171 99.5698C83.5161 99.1609 82.3381 98.7715 80.683 98.4015C78.9696 98.0316 77.5774 97.6032 76.5064 97.1164C75.4355 96.6297 74.6275 96.0066 74.0823 95.2472C73.5371 94.4878 73.2645 93.524 73.2645 92.3557C73.2645 91.1485 73.5955 90.0678 74.2575 89.1138C74.9195 88.1597 75.8542 87.4198 77.0614 86.894C78.2686 86.3488 79.6608 86.0762 81.238 86.0762C82.6788 86.0762 84.0515 86.3002 85.3561 86.748C86.6607 87.1764 87.7316 87.7702 88.5689 88.5296L87.313 91.2751C85.4827 89.8147 83.4577 89.0846 81.238 89.0846C79.9139 89.0846 78.8625 89.3571 78.0836 89.9023C77.3242 90.4281 76.9446 91.168 76.9446 92.1221C76.9446 92.9204 77.2853 93.5337 77.9668 93.9621C78.6483 94.3905 79.8068 94.7896 81.4424 95.1596C83.1753 95.549 84.5773 95.9871 85.6482 96.4739C86.7386 96.9412 87.5661 97.5448 88.1308 98.2847C88.7149 99.0246 89.007 99.9592 89.007 101.089C89.007 102.315 88.676 103.396 88.0139 104.331C87.3714 105.246 86.427 105.956 85.1809 106.463C83.9542 106.949 82.5036 107.193 80.8291 107.193ZM101.645 107.193C99.6391 107.193 97.8964 106.764 96.4166 105.908C94.9563 105.051 93.8269 103.824 93.0286 102.228C92.2303 100.631 91.8311 98.7618 91.8311 96.6199C91.8311 94.4781 92.2206 92.6186 92.9994 91.0414C93.7977 89.4448 94.9368 88.2181 96.4166 87.3613C97.8964 86.5046 99.6391 86.0762 101.645 86.0762C103.65 86.0762 105.383 86.5046 106.843 87.3613C108.323 88.2181 109.453 89.4448 110.231 91.0414C111.03 92.6186 111.429 94.4781 111.429 96.6199C111.429 98.7618 111.03 100.631 110.231 102.228C109.433 103.824 108.294 105.051 106.814 105.908C105.354 106.764 103.631 107.193 101.645 107.193ZM101.645 104.184C103.533 104.184 105.003 103.532 106.055 102.228C107.126 100.923 107.661 99.0538 107.661 96.6199C107.661 94.186 107.126 92.3265 106.055 91.0414C105.003 89.7368 103.533 89.0846 101.645 89.0846C99.7365 89.0846 98.2469 89.7368 97.176 91.0414C96.1245 92.3265 95.5988 94.186 95.5988 96.6199C95.5988 99.0538 96.1245 100.923 97.176 102.228C98.2469 103.532 99.7365 104.184 101.645 104.184ZM120.954 104.845V106.93H113.857V104.988L117.141 101.575C117.77 100.919 118.084 100.314 118.084 99.7619C118.084 99.0956 117.689 98.7624 116.899 98.7624C116.518 98.7624 116.104 98.8433 115.656 99.0051C115.218 99.1575 114.776 99.3764 114.328 99.662L113.515 97.8057C113.914 97.4821 114.433 97.225 115.071 97.0347C115.718 96.8347 116.375 96.7348 117.041 96.7348C117.765 96.7348 118.398 96.8538 118.941 97.0918C119.493 97.3202 119.916 97.6486 120.211 98.077C120.506 98.5054 120.654 99.0051 120.654 99.5763C120.654 100.157 120.535 100.69 120.297 101.176C120.069 101.651 119.673 102.185 119.112 102.775L117.084 104.845H120.954Z" fill="#677580"/>
<path d="M78.3264 120.925L78.0019 166.819C78.0051 166.959 77.9626 167.097 77.881 167.211C77.7993 167.325 77.6829 167.41 77.5491 167.452C77.4153 167.495 77.2714 167.493 77.1388 167.446C77.0063 167.4 76.8924 167.312 76.8142 167.195L71.4336 159.77L77.9791 168.789L84.2003 159.754" stroke="#677580" stroke-width="4.27" stroke-miterlimit="10"/>
<path d="M99.817 117.813L99.4406 150.405C99.4382 150.565 99.3852 150.721 99.2892 150.85C99.1932 150.979 99.059 151.075 98.9057 151.123C98.7524 151.172 98.5877 151.171 98.435 151.12C98.2823 151.07 98.1493 150.973 98.0549 150.843L91.7852 142.197L99.4016 152.696L106.642 142.181" stroke="#677580" stroke-width="4.27" stroke-miterlimit="10"/>
<path d="M120.067 128.285L119.742 164.609C119.745 164.749 119.702 164.886 119.62 165C119.538 165.113 119.421 165.198 119.288 165.24C119.154 165.282 119.01 165.279 118.878 165.233C118.746 165.186 118.632 165.098 118.554 164.982L113.164 157.557L119.71 166.576L125.931 157.541" stroke="#677580" stroke-width="4.27" stroke-miterlimit="10"/>
</g>
</svg>
